<mxfile host="app.diagrams.net" agent="Mozilla/5.0 (Windows NT 10.0; Win64; x64) AppleWebKit/537.36 (KHTML, like Gecko) Chrome/128.0.0.0 Safari/537.36 OPR/114.0.0.0" version="24.9.3">
  <diagram name="Page-1" id="7tvb0NxP4iYLehh3B2DB">
    <mxGraphModel dx="1466" dy="795" grid="1" gridSize="10" guides="1" tooltips="1" connect="1" arrows="1" fold="1" page="1" pageScale="1" pageWidth="850" pageHeight="1100" math="0" shadow="0">
      <root>
        <mxCell id="0" />
        <mxCell id="1" parent="0" />
        <mxCell id="xY0x4DcUsU1c1M4LSIlG-1" value="" style="rounded=0;whiteSpace=wrap;html=1;fillColor=none;strokeColor=default;fontSize=12;movable=1;resizable=1;rotatable=1;deletable=1;editable=1;locked=0;connectable=1;" vertex="1" parent="1">
          <mxGeometry x="135" y="110" width="695" height="680" as="geometry" />
        </mxCell>
        <mxCell id="xY0x4DcUsU1c1M4LSIlG-2" value="&lt;font&gt;Người&lt;br&gt;dùng&lt;/font&gt;" style="shape=umlActor;verticalLabelPosition=bottom;verticalAlign=top;html=1;outlineConnect=0;fontSize=12;" vertex="1" parent="1">
          <mxGeometry x="30" y="380" width="40" height="80" as="geometry" />
        </mxCell>
        <mxCell id="xY0x4DcUsU1c1M4LSIlG-3" value="" style="endArrow=none;html=1;rounded=0;entryX=0;entryY=0.5;entryDx=0;entryDy=0;exitX=1;exitY=0.3333333333333333;exitDx=0;exitDy=0;exitPerimeter=0;fontSize=12;" edge="1" parent="1" source="xY0x4DcUsU1c1M4LSIlG-2" target="xY0x4DcUsU1c1M4LSIlG-14">
          <mxGeometry width="50" height="50" relative="1" as="geometry">
            <mxPoint y="530" as="sourcePoint" />
            <mxPoint x="230" y="260" as="targetPoint" />
          </mxGeometry>
        </mxCell>
        <mxCell id="xY0x4DcUsU1c1M4LSIlG-4" value="&lt;div&gt;&lt;span style=&quot;background-color: initial;&quot;&gt;Nền tảng bài viết CookBook&lt;/span&gt;&lt;br&gt;&lt;/div&gt;" style="text;strokeColor=none;fillColor=none;html=1;fontSize=16;fontStyle=1;verticalAlign=middle;align=center;" vertex="1" parent="1">
          <mxGeometry x="135" y="110" width="235" height="50" as="geometry" />
        </mxCell>
        <mxCell id="xY0x4DcUsU1c1M4LSIlG-6" value="" style="endArrow=none;html=1;rounded=0;exitX=1;exitY=0.3333333333333333;exitDx=0;exitDy=0;exitPerimeter=0;entryX=0;entryY=0.5;entryDx=0;entryDy=0;fontSize=12;" edge="1" parent="1" source="xY0x4DcUsU1c1M4LSIlG-2" target="xY0x4DcUsU1c1M4LSIlG-16">
          <mxGeometry width="50" height="50" relative="1" as="geometry">
            <mxPoint x="80" y="407" as="sourcePoint" />
            <mxPoint x="230" y="550" as="targetPoint" />
          </mxGeometry>
        </mxCell>
        <mxCell id="xY0x4DcUsU1c1M4LSIlG-14" value="" style="ellipse;whiteSpace=wrap;html=1;" vertex="1" parent="1">
          <mxGeometry x="230" y="220" width="120" height="80" as="geometry" />
        </mxCell>
        <mxCell id="xY0x4DcUsU1c1M4LSIlG-16" value="4. Theo dõi người dùng khác" style="ellipse;whiteSpace=wrap;html=1;" vertex="1" parent="1">
          <mxGeometry x="230" y="570" width="120" height="80" as="geometry" />
        </mxCell>
        <mxCell id="xY0x4DcUsU1c1M4LSIlG-17" value="2. Xem Newsfeed" style="ellipse;whiteSpace=wrap;html=1;" vertex="1" parent="1">
          <mxGeometry x="230" y="340" width="120" height="80" as="geometry" />
        </mxCell>
        <mxCell id="xY0x4DcUsU1c1M4LSIlG-18" value="" style="endArrow=none;html=1;rounded=0;fontSize=12;exitX=1;exitY=0.3333333333333333;exitDx=0;exitDy=0;exitPerimeter=0;entryX=0;entryY=0.5;entryDx=0;entryDy=0;" edge="1" parent="1" source="xY0x4DcUsU1c1M4LSIlG-2" target="xY0x4DcUsU1c1M4LSIlG-17">
          <mxGeometry width="50" height="50" relative="1" as="geometry">
            <mxPoint x="70" y="410" as="sourcePoint" />
            <mxPoint x="240" y="500" as="targetPoint" />
          </mxGeometry>
        </mxCell>
        <mxCell id="xY0x4DcUsU1c1M4LSIlG-19" value="1. Đăng nhập" style="text;html=1;align=center;verticalAlign=middle;whiteSpace=wrap;rounded=0;fontStyle=1;fontSize=12;" vertex="1" parent="1">
          <mxGeometry x="230" y="220" width="120" height="30" as="geometry" />
        </mxCell>
        <mxCell id="xY0x4DcUsU1c1M4LSIlG-20" value="" style="endArrow=none;html=1;rounded=0;exitX=0.024;exitY=0.346;exitDx=0;exitDy=0;exitPerimeter=0;entryX=0.979;entryY=0.351;entryDx=0;entryDy=0;entryPerimeter=0;" edge="1" parent="1" source="xY0x4DcUsU1c1M4LSIlG-14" target="xY0x4DcUsU1c1M4LSIlG-14">
          <mxGeometry width="50" height="50" relative="1" as="geometry">
            <mxPoint x="250" y="320" as="sourcePoint" />
            <mxPoint x="300" y="270" as="targetPoint" />
          </mxGeometry>
        </mxCell>
        <mxCell id="xY0x4DcUsU1c1M4LSIlG-22" value="extension point" style="text;html=1;align=center;verticalAlign=middle;whiteSpace=wrap;rounded=0;" vertex="1" parent="1">
          <mxGeometry x="235" y="250" width="110" height="20" as="geometry" />
        </mxCell>
        <mxCell id="xY0x4DcUsU1c1M4LSIlG-26" value="Muốn tạo tài khoản" style="text;html=1;align=center;verticalAlign=middle;whiteSpace=wrap;rounded=0;fontSize=9;fontStyle=2" vertex="1" parent="1">
          <mxGeometry x="230" y="270" width="120" height="10" as="geometry" />
        </mxCell>
        <mxCell id="xY0x4DcUsU1c1M4LSIlG-27" value="Quên mật khẩu" style="text;html=1;align=center;verticalAlign=middle;whiteSpace=wrap;rounded=0;fontStyle=2;fontSize=9;" vertex="1" parent="1">
          <mxGeometry x="250" y="280" width="80" height="10" as="geometry" />
        </mxCell>
        <mxCell id="xY0x4DcUsU1c1M4LSIlG-28" value="1.1. Tạo tài khoản" style="ellipse;whiteSpace=wrap;html=1;" vertex="1" parent="1">
          <mxGeometry x="470" y="170" width="120" height="80" as="geometry" />
        </mxCell>
        <mxCell id="xY0x4DcUsU1c1M4LSIlG-29" value="&amp;lt;&amp;lt;extend&amp;gt;&amp;gt;" style="html=1;verticalAlign=bottom;labelBackgroundColor=none;endArrow=open;endFill=0;dashed=1;rounded=0;exitX=1;exitY=0.5;exitDx=0;exitDy=0;entryX=0;entryY=0.5;entryDx=0;entryDy=0;" edge="1" parent="1" source="xY0x4DcUsU1c1M4LSIlG-14" target="xY0x4DcUsU1c1M4LSIlG-28">
          <mxGeometry x="0.0888" y="14" width="160" relative="1" as="geometry">
            <mxPoint x="450" y="350" as="sourcePoint" />
            <mxPoint x="610" y="350" as="targetPoint" />
            <mxPoint as="offset" />
          </mxGeometry>
        </mxCell>
        <mxCell id="xY0x4DcUsU1c1M4LSIlG-30" value="1.3. Quên mật khẩu" style="ellipse;whiteSpace=wrap;html=1;" vertex="1" parent="1">
          <mxGeometry x="470" y="270" width="120" height="80" as="geometry" />
        </mxCell>
        <mxCell id="xY0x4DcUsU1c1M4LSIlG-31" value="&amp;lt;&amp;lt;extend&amp;gt;&amp;gt;" style="html=1;verticalAlign=bottom;labelBackgroundColor=none;endArrow=open;endFill=0;dashed=1;rounded=0;exitX=1;exitY=0.5;exitDx=0;exitDy=0;entryX=0;entryY=0.5;entryDx=0;entryDy=0;" edge="1" parent="1" target="xY0x4DcUsU1c1M4LSIlG-30" source="xY0x4DcUsU1c1M4LSIlG-14">
          <mxGeometry x="0.0888" y="14" width="160" relative="1" as="geometry">
            <mxPoint x="350" y="360" as="sourcePoint" />
            <mxPoint x="610" y="450" as="targetPoint" />
            <mxPoint as="offset" />
          </mxGeometry>
        </mxCell>
        <mxCell id="xY0x4DcUsU1c1M4LSIlG-32" value="3. Tương tác &lt;br&gt;với bài viết" style="ellipse;whiteSpace=wrap;html=1;" vertex="1" parent="1">
          <mxGeometry x="230" y="450" width="120" height="80" as="geometry" />
        </mxCell>
        <mxCell id="xY0x4DcUsU1c1M4LSIlG-33" value="" style="endArrow=none;html=1;rounded=0;fontSize=12;exitX=1;exitY=0.3333333333333333;exitDx=0;exitDy=0;exitPerimeter=0;entryX=0;entryY=0.5;entryDx=0;entryDy=0;" edge="1" parent="1" source="xY0x4DcUsU1c1M4LSIlG-2" target="xY0x4DcUsU1c1M4LSIlG-32">
          <mxGeometry width="50" height="50" relative="1" as="geometry">
            <mxPoint x="80" y="417" as="sourcePoint" />
            <mxPoint x="240" y="390" as="targetPoint" />
          </mxGeometry>
        </mxCell>
        <mxCell id="xY0x4DcUsU1c1M4LSIlG-34" value="Đọc/ Thích/ Bình luận/ Chia sẻ/ Tạo" style="shape=note;whiteSpace=wrap;html=1;backgroundOutline=1;darkOpacity=0.05;size=12;" vertex="1" parent="1">
          <mxGeometry x="390" y="450" width="210" height="40" as="geometry" />
        </mxCell>
        <mxCell id="xY0x4DcUsU1c1M4LSIlG-36" value="" style="endArrow=none;dashed=1;html=1;rounded=0;exitX=1;exitY=0.5;exitDx=0;exitDy=0;entryX=0;entryY=0.5;entryDx=0;entryDy=0;entryPerimeter=0;" edge="1" parent="1" source="xY0x4DcUsU1c1M4LSIlG-32" target="xY0x4DcUsU1c1M4LSIlG-34">
          <mxGeometry width="50" height="50" relative="1" as="geometry">
            <mxPoint x="380" y="590" as="sourcePoint" />
            <mxPoint x="430" y="540" as="targetPoint" />
          </mxGeometry>
        </mxCell>
        <mxCell id="xY0x4DcUsU1c1M4LSIlG-39" value="" style="endArrow=none;html=1;rounded=0;exitX=1;exitY=0.3333333333333333;exitDx=0;exitDy=0;exitPerimeter=0;fontSize=12;entryX=0;entryY=0.5;entryDx=0;entryDy=0;" edge="1" parent="1" source="xY0x4DcUsU1c1M4LSIlG-2" target="xY0x4DcUsU1c1M4LSIlG-40">
          <mxGeometry width="50" height="50" relative="1" as="geometry">
            <mxPoint x="80" y="417" as="sourcePoint" />
            <mxPoint x="210" y="680" as="targetPoint" />
          </mxGeometry>
        </mxCell>
        <mxCell id="xY0x4DcUsU1c1M4LSIlG-40" value="5. Chỉnh sửa hồ sơ cá nhân" style="ellipse;whiteSpace=wrap;html=1;" vertex="1" parent="1">
          <mxGeometry x="230" y="690" width="120" height="80" as="geometry" />
        </mxCell>
        <mxCell id="xY0x4DcUsU1c1M4LSIlG-41" value="Thay đổi avatar/ banner/ bio" style="shape=note;whiteSpace=wrap;html=1;backgroundOutline=1;darkOpacity=0.05;size=12;" vertex="1" parent="1">
          <mxGeometry x="390" y="690" width="210" height="40" as="geometry" />
        </mxCell>
        <mxCell id="xY0x4DcUsU1c1M4LSIlG-42" value="" style="endArrow=none;dashed=1;html=1;rounded=0;exitX=1;exitY=0.5;exitDx=0;exitDy=0;entryX=0;entryY=0.5;entryDx=0;entryDy=0;entryPerimeter=0;" edge="1" parent="1" source="xY0x4DcUsU1c1M4LSIlG-40" target="xY0x4DcUsU1c1M4LSIlG-41">
          <mxGeometry width="50" height="50" relative="1" as="geometry">
            <mxPoint x="360" y="730" as="sourcePoint" />
            <mxPoint x="400" y="710" as="targetPoint" />
          </mxGeometry>
        </mxCell>
        <mxCell id="xY0x4DcUsU1c1M4LSIlG-43" value="&amp;lt;&amp;lt;include&amp;gt;&amp;gt;" style="html=1;verticalAlign=bottom;labelBackgroundColor=none;endArrow=open;endFill=0;dashed=1;rounded=0;exitX=1;exitY=0.5;exitDx=0;exitDy=0;" edge="1" parent="1" source="xY0x4DcUsU1c1M4LSIlG-28">
          <mxGeometry width="160" relative="1" as="geometry">
            <mxPoint x="590" y="210" as="sourcePoint" />
            <mxPoint x="660" y="210" as="targetPoint" />
          </mxGeometry>
        </mxCell>
        <mxCell id="xY0x4DcUsU1c1M4LSIlG-44" value="1.2. Xác thực &lt;br&gt;tài khoản" style="ellipse;whiteSpace=wrap;html=1;" vertex="1" parent="1">
          <mxGeometry x="660" y="170" width="120" height="80" as="geometry" />
        </mxCell>
      </root>
    </mxGraphModel>
  </diagram>
</mxfile>
